<?xml version="1.0" encoding="UTF-8" standalone="no"?>
<!DOCTYPE svg PUBLIC "-//W3C//DTD SVG 1.1//EN" "http://www.w3.org/Graphics/SVG/1.1/DTD/svg11.dtd">
<svg width="100%" height="100%" viewBox="0 0 500 500" version="1.1" xmlns="http://www.w3.org/2000/svg" xmlns:xlink="http://www.w3.org/1999/xlink" xml:space="preserve" xmlns:serif="http://www.serif.com/" style="fill-rule:evenodd;clip-rule:evenodd;stroke-linejoin:round;stroke-miterlimit:2;">
  <g transform="matrix(1,0,0,1,-6264,-1280)">
    <g id="Artboard2" transform="matrix(0.99651,0,0,0.99651,21.0176,4.10233)">
      <rect x="6264.85" y="1280.37" width="501.751" height="501.751" style="fill:none;"/>
      <g transform="matrix(0.111796,0,0,0.111796,6236.24,1271.6)">
        <path d="M3036.55,713.091C3036.55,662.031 3061.87,614.295 3104.14,585.662C3146.42,557.029 3200.14,551.226 3247.56,570.172C4001.77,868.573 4535.8,1604.52 4535.8,2464.2C4535.8,3587.79 3623.59,4500 2500,4500C1376.41,4500 464.205,3587.79 464.205,2464.2C464.205,1604.52 998.232,868.573 1752.48,570.278C1799.86,551.346 1853.55,557.144 1895.79,585.756C1938.04,614.369 1963.34,662.069 1963.34,713.091C1963.45,713.101 1963.45,713.112 1963.45,713.122C1963.45,835.343 1894.09,946.973 1784.51,1001.11C1243.89,1266.09 871.364,1821.99 871.364,2464.2C871.364,3363.07 1601.13,4092.84 2500,4092.84C3398.87,4092.84 4128.64,3363.07 4128.64,2464.2C4128.64,1821.99 3756.11,1266.09 3215.53,1001.01C3105.99,946.9 3036.65,835.304 3036.65,713.122C3036.55,713.112 3036.55,713.101 3036.55,713.091ZM2950.85,2832.42C2950.85,2905.79 2937.74,2974.49 2911.54,3038.5C2885.34,3102.51 2846.4,3156.61 2794.74,3200.78C2740.09,3247.95 2674.2,3284.45 2597.09,3310.28C2519.97,3336.11 2424.51,3349.02 2310.71,3349.02C2233.6,3349.02 2160.97,3346.22 2092.84,3340.63C2024.71,3335.03 1964.81,3327.01 1913.15,3316.56L1913.15,2978.42L1953.58,2978.42C1989.52,2991.89 2026.95,3004.43 2065.89,3016.04C2104.82,3027.64 2154.61,3033.45 2215.25,3033.45C2293.87,3033.45 2354.32,3022.95 2396.62,3001.97C2438.93,2980.98 2469.06,2951.75 2487.03,2914.28C2504.25,2877.56 2513.98,2837.28 2516.23,2793.43C2518.47,2749.59 2519.6,2693.56 2519.6,2625.36L2519.6,1958.69L2136.64,1958.69L2136.64,1650.98L2950.85,1650.98L2950.85,2832.42ZM2750,394.988C2750,256.923 2638.08,145 2500.01,145C2500,145 2500,145 2499.99,145C2361.92,145 2250,256.923 2250,394.988L2250,1031.38C2250,1169.44 2361.92,1281.36 2499.99,1281.36C2500,1281.36 2500,1281.36 2500.01,1281.36C2638.08,1281.36 2750,1169.44 2750,1031.38C2750,842.359 2750,584.004 2750,394.988Z" style="fill:url(#_Linear1);"/>
      </g>
    </g>
  </g>
  <defs>
    <linearGradient id="_Linear1" x1="0" y1="0" x2="1" y2="0" gradientUnits="userSpaceOnUse" gradientTransform="matrix(3.99847e-13,6530,-6530,3.99847e-13,2500,145)"><stop offset="0" style="stop-color:rgb(30,156,34);stop-opacity:1"/><stop offset="1" style="stop-color:rgb(149,229,138);stop-opacity:1"/></linearGradient>
  </defs>
</svg>
